<?xml version="1.0" encoding="utf-8"?>
<!-- Generator: Adobe Illustrator 18.1.0, SVG Export Plug-In . SVG Version: 6.00 Build 0)  -->
<!DOCTYPE svg PUBLIC "-//W3C//DTD SVG 1.1//EN" "http://www.w3.org/Graphics/SVG/1.1/DTD/svg11.dtd">
<svg version="1.1" id="Layer_1" xmlns="http://www.w3.org/2000/svg" xmlns:xlink="http://www.w3.org/1999/xlink" x="0px" y="0px"
	 viewBox="-589 368.9 100 55" enable-background="new -589 368.9 100 55" xml:space="preserve">
<path fill="#0C416D" d="M-568.6,423.8l2-9v-0.1l0-0.1c1.4-5.9,8.5-8.8,12.5-10.5c-2.4-1.1-3.6-1.9-4.2-2c-0.2-0.5-0.8-4.1-0.8-4.1
	s2.9-2.5,3.5-7.4c0,0,1.4,0.8,1.5-2.2c0.1-2.3,0.5-3.2-1.1-3.8c0,0,0.1-1.6,0.2-3c0.1-2.1,0.5-5-3.1-7.3c-0.5-0.3-3.1-1.8-3.1-1.8
	c-0.9-0.6-2.1-0.9-2.1-0.9l0,0.8c-0.1-0.1-0.1-0.1-0.2-0.2c-0.2-0.2-0.4-1.2-0.3-1.6c0-0.7,0-0.7,0-0.7c-1.7,1.3-2.9,2.9-2.9,2.9
	l0.2-1.6c0,0-0.3,0.5-4.2,2.9c-3.8,2.4-3.2,5.9-3.1,7.9c0.1,1.4,0.2,2.3,0.2,2.3c-1.5,0.7-0.7,1.6-0.7,3.9c0,3.1,1.6,2.6,1.6,2.6
	c0.7,4.3,3,6.9,3,6.9s-0.6,3.7-0.9,4.1c-0.7,0.2-2.3,1.3-5.7,2.7c-5,2.1-3.4,0.9-7.5,2.9c-5.7,2.9-5.3,13.8-5.2,16.2H-568.6z"/>
<path fill="#3E85BA" d="M-522.6,394.1c0,0-0.6,1.9-0.7,2.2c-0.1,0.3-0.7,1-0.6,1c0.1,0,1.4,0.6,1.4,0.6l5.1,1.6l-0.1,2.4
	c-0.4,0.1-2.2,1.2-2.4,1.8c-0.2,0.4-0.5,1-0.9,1.5c4.6,1.9,7.3,4.6,7.4,7.6c0.1,0.4,2,7.3,2.7,10.9h21.5c-0.2-3.6-0.6-11.2-0.6-11.3
	c0,0-1.2-3.1-3.2-3.4c-1.9-0.3-4.4-1-5.5-1.8c-0.6-0.5-2.6-1.3-3.5-1.6c-0.4-0.2-1.2-1.4-1.4-2c-0.3-0.6-2-1.7-2.4-1.8l-0.1-2.4
	l5.1-1.6c0,0,1.3-0.6,1.4-0.6c0.1,0-0.6-1-0.7-1.2c-0.1-0.3-0.6-2-0.6-2s1.7,2.1,2.6,2.5c0,0-1.7-3.2-2.2-5
	c-0.5-1.8-0.8-4.6-0.8-4.8c0-0.3-1.1-7.7-1.6-9c-0.6-1.2-1.3-2.9-2.7-3.8c-1.3-0.8-3.3-2-6.1-2.2c0,0-0.1,0-0.1,0c0,0-0.1,0-0.1,0
	c-2.8,0.2-4.8,1.3-6.1,2.2c-1.3,0.8-2.1,2.5-2.7,3.8c-0.6,1.2-1.6,8.7-1.6,9c0,0.3-0.3,3.1-0.8,4.9c-0.5,1.8-2.2,4.9-2.2,4.9
	C-524.3,396.2-522.6,394.1-522.6,394.1z"/>
<path fill="#0E5C96" d="M-513.1,423.8c-1.2-5.3-2.7-10.8-2.7-10.8c0-2.4-3.1-5.1-9.2-6.6c-3.2-0.8-5.8-2.6-5.8-2.6
	c-0.4-0.2-0.3-2.3-0.3-2.3l-2-0.3c0-0.2-0.2-2.6-0.2-2.6c2.4-0.8,2.1-5.4,2.1-5.4c1.5,0.8,2.5-2.8,2.5-2.8c1.8-5.1-0.9-4.8-0.9-4.8
	c0.8-3.8,0-9.4,0-9.4c-1.2-10.3-18.9-7.5-16.8-4.2c-5.2-1-4,10.8-4,10.8l1.1,3c-2.2,1.4-0.7,3.1-0.6,5.1c0.1,2.9,1.9,2.3,1.9,2.3
	c0.1,4.8,2.5,5.5,2.5,5.5c0.5,3,0.2,2.5,0.2,2.5l-2.1,0.3c0.1,0.8-0.2,2.1-0.2,2.1c-2.5,1.1-3,1.8-5.5,2.8c-4.8,2.1-10,4.8-11,8.5
	c-0.4,1.6-1.2,5.3-1.9,9H-513.1z"/>
</svg>
